<?xml version="1.0" encoding="UTF-8" standalone="no"?>
<svg
   xmlns:dc="http://purl.org/dc/elements/1.1/"
   xmlns:cc="http://creativecommons.org/ns#"
   xmlns:rdf="http://www.w3.org/1999/02/22-rdf-syntax-ns#"
   xmlns:svg="http://www.w3.org/2000/svg"
   xmlns="http://www.w3.org/2000/svg"
   xmlns:sodipodi="http://sodipodi.sourceforge.net/DTD/sodipodi-0.dtd"
   xmlns:inkscape="http://www.inkscape.org/namespaces/inkscape"
   width="28px"
   height="28px"
   viewBox="0 0 28 28"
   version="1.1"
   id="svg2"
   inkscape:version="0.91 r13725"
   sodipodi:docname="accordion.svg">
  <metadata
     id="metadata20">
    <rdf:RDF>
      <cc:Work
         rdf:about="">
        <dc:format>image/svg+xml</dc:format>
        <dc:type
           rdf:resource="http://purl.org/dc/dcmitype/StillImage" />
      </cc:Work>
    </rdf:RDF>
  </metadata>
  <sodipodi:namedview
     pagecolor="#ffffff"
     bordercolor="#666666"
     borderopacity="1"
     objecttolerance="10"
     gridtolerance="10"
     guidetolerance="10"
     inkscape:pageopacity="0"
     inkscape:pageshadow="2"
     inkscape:window-width="1482"
     inkscape:window-height="782"
     id="namedview18"
     showgrid="false"
     inkscape:zoom="8.4285714"
     inkscape:cx="14.533898"
     inkscape:cy="14"
     inkscape:window-x="65"
     inkscape:window-y="24"
     inkscape:window-maximized="0"
     inkscape:current-layer="svg2" />
  <defs
     id="defs4" />
  <g
     id="Page-1"
     stroke="none"
     stroke-width="1"
     fill="none"
     fill-rule="evenodd"
     style="fill:#000000">
    <g
       id="Group"
       transform="translate(-3.000000, -3.000000)"
       fill="#4FF3AD"
       style="fill:#000000">
      <g
         id="accordion"
         transform="translate(3.000000, 3.000000)"
         style="fill:#000000">
        <g
           id="g9"
           style="fill:#000000">
          <path
             d="M0,18 C0,19.104 0.896,20 2,20 L26,20 C27.104,20 28,19.104 28,18 L28,6 C28,4.896 27.104,4 26,4 L2,4 C0.896,4 0,4.896 0,6 L0,18 L0,18 Z M2,6 L26,6 L26,18 L2,18 L2,6 L2,6 Z"
             id="Shape"
             style="fill:#000000" />
          <path
             d="M27,2 C27.552,2 28,1.552 28,1 C28,0.448 27.552,0 27,0 L1,0 C0.448,0 0,0.448 0,1 C0,1.552 0.448,2 1,2 L27,2 L27,2 Z"
             id="path12"
             style="fill:#000000" />
          <path
             d="M1,24 L27,24 C27.552,24 28,23.552 28,23 C28,22.448 27.552,22 27,22 L1,22 C0.448,22 0,22.448 0,23 C0,23.552 0.448,24 1,24 L1,24 Z"
             id="path14"
             style="fill:#000000" />
          <path
             d="M1,28 L27,28 C27.552,28 28,27.552 28,27 C28,26.448 27.552,26 27,26 L1,26 C0.448,26 0,26.448 0,27 C0,27.552 0.448,28 1,28 L1,28 Z"
             id="path16"
             style="fill:#000000" />
        </g>
      </g>
    </g>
  </g>
</svg>
