<?xml version="1.0" encoding="UTF-8" standalone="no"?>
<svg
   xmlns:dc="http://purl.org/dc/elements/1.1/"
   xmlns:cc="http://creativecommons.org/ns#"
   xmlns:rdf="http://www.w3.org/1999/02/22-rdf-syntax-ns#"
   xmlns:svg="http://www.w3.org/2000/svg"
   xmlns="http://www.w3.org/2000/svg"
   xmlns:sodipodi="http://sodipodi.sourceforge.net/DTD/sodipodi-0.dtd"
   xmlns:inkscape="http://www.inkscape.org/namespaces/inkscape"
   width="32px"
   height="32px"
   viewBox="0 0 32 32"
   version="1.1"
   id="svg2"
   inkscape:version="0.91 r13725"
   sodipodi:docname="audio.svg">
  <metadata
     id="metadata12">
    <rdf:RDF>
      <cc:Work
         rdf:about="">
        <dc:format>image/svg+xml</dc:format>
        <dc:type
           rdf:resource="http://purl.org/dc/dcmitype/StillImage" />
      </cc:Work>
    </rdf:RDF>
  </metadata>
  <sodipodi:namedview
     pagecolor="#ffffff"
     bordercolor="#666666"
     borderopacity="1"
     objecttolerance="10"
     gridtolerance="10"
     guidetolerance="10"
     inkscape:pageopacity="0"
     inkscape:pageshadow="2"
     inkscape:window-width="1079"
     inkscape:window-height="594"
     id="namedview10"
     showgrid="false"
     inkscape:zoom="7.375"
     inkscape:cx="16.610169"
     inkscape:cy="16"
     inkscape:window-x="75"
     inkscape:window-y="34"
     inkscape:window-maximized="0"
     inkscape:current-layer="svg2" />
  <defs
     id="defs4" />
  <g
     id="Page-1"
     stroke="none"
     stroke-width="1"
     fill="none"
     fill-rule="evenodd"
     style="fill:#000000">
    <g
       id="Group"
       transform="translate(-1.000000, -1.000000)"
       fill="#4FF3AD"
       style="fill:#000000">
      <g
         id="audio"
         transform="translate(1.000000, 1.000000)"
         style="fill:#000000">
        <path
           d="M30.584,6.66133815e-16 C30.4,6.66133815e-16 30.204,0.03 30,0.092 L10,3.494 C8.896,3.83 8,5 8,6.104 L8,8.104 L8,8.35 L8,14 L8,22 L5,22 C2.238,22 0,24.238 0,27 C0,29.762 2.238,32 5,32 C7.762,32 10,29.762 10,27 L10,13.666 L30,10.332 L30,18 L27,18 C24.238,18 22,20.238 22,23 C22,25.762 24.238,28 27,28 C29.762,28 32,25.762 32,23 L32,10 L32,4.012 L32,3.482 L32,1.482 C32,0.58 31.404,0 30.584,0 L30.584,6.66133815e-16 Z M8,27 C8,28.654 6.654,30 5,30 C3.346,30 2,28.654 2,27 C2,25.346 3.346,24 5,24 L8,24 L8,27 L8,27 Z M30,23 C30,24.654 28.654,26 27,26 C25.346,26 24,24.654 24,23 C24,21.346 25.346,20 27,20 L30,20 L30,23 L30,23 Z M10,11.64 L10,6.104 C10,5.93 10.242,5.566 10.51,5.436 L30,2.12 L30,8.306 L10,11.64 L10,11.64 Z"
           id="Shape"
           style="fill:#000000" />
      </g>
    </g>
  </g>
</svg>
