<?xml version="1.0" encoding="UTF-8" standalone="no"?>
<svg
   xmlns:dc="http://purl.org/dc/elements/1.1/"
   xmlns:cc="http://creativecommons.org/ns#"
   xmlns:rdf="http://www.w3.org/1999/02/22-rdf-syntax-ns#"
   xmlns:svg="http://www.w3.org/2000/svg"
   xmlns="http://www.w3.org/2000/svg"
   xmlns:sodipodi="http://sodipodi.sourceforge.net/DTD/sodipodi-0.dtd"
   xmlns:inkscape="http://www.inkscape.org/namespaces/inkscape"
   width="32px"
   height="32px"
   viewBox="0 0 32 32"
   version="1.1"
   id="svg2"
   inkscape:version="0.91 r13725"
   sodipodi:docname="blog.svg">
  <metadata
     id="metadata28">
    <rdf:RDF>
      <cc:Work
         rdf:about="">
        <dc:format>image/svg+xml</dc:format>
        <dc:type
           rdf:resource="http://purl.org/dc/dcmitype/StillImage" />
      </cc:Work>
    </rdf:RDF>
  </metadata>
  <sodipodi:namedview
     pagecolor="#ffffff"
     bordercolor="#666666"
     borderopacity="1"
     objecttolerance="10"
     gridtolerance="10"
     guidetolerance="10"
     inkscape:pageopacity="0"
     inkscape:pageshadow="2"
     inkscape:window-width="694"
     inkscape:window-height="480"
     id="namedview26"
     showgrid="false"
     inkscape:zoom="7.375"
     inkscape:cx="16.610169"
     inkscape:cy="16"
     inkscape:window-x="75"
     inkscape:window-y="34"
     inkscape:window-maximized="0"
     inkscape:current-layer="svg2" />
  <defs
     id="defs4" />
  <g
     id="Page-1"
     stroke="none"
     stroke-width="1"
     fill="none"
     fill-rule="evenodd"
     style="fill:#000000">
    <g
       id="Group"
       transform="translate(-1.000000, -1.000000)"
       fill="#4FF3AD"
       style="fill:#000000">
      <g
         id="blogfeed_standard_module"
         transform="translate(1.000000, 1.000000)"
         style="fill:#000000">
        <g
           id="g9"
           style="fill:#000000">
          <path
             d="M30,2 L30,12 L2,12 L2,2 L30,2 L30,2 Z M30,0 L2,0 C0.8,0 0,0.8 0,2 L0,12 C0,13.2 0.8,14 2,14 L30,14 C31.2,14 32,13.2 32,12 L32,2 C32,0.8 31.2,0 30,0 L30,0 L30,0 Z"
             id="Shape"
             style="fill:#000000" />
          <path
             d="M11,10 L5,10 C4.4,10 4,9.6 4,9 L4,5 C4,4.4 4.4,4 5,4 L11,4 C11.6,4 12,4.4 12,5 L12,9 C12,9.6 11.6,10 11,10 L11,10 Z"
             id="path12"
             style="fill:#000000" />
          <path
             d="M27,6 L15,6 C14.4,6 14,5.6 14,5 L14,5 C14,4.4 14.4,4 15,4 L27,4 C27.6,4 28,4.4 28,5 L28,5 C28,5.6 27.6,6 27,6 L27,6 Z"
             id="path14"
             style="fill:#000000" />
          <path
             d="M27,10 L15,10 C14.4,10 14,9.6 14,9 L14,9 C14,8.4 14.4,8 15,8 L27,8 C27.6,8 28,8.4 28,9 L28,9 C28,9.6 27.6,10 27,10 L27,10 Z"
             id="path16"
             style="fill:#000000" />
          <path
             d="M30,20 L30,30 L2,30 L2,20 L30,20 L30,20 Z M30,18 L2,18 C0.8,18 0,18.8 0,20 L0,30 C0,31.2 0.8,32 2,32 L30,32 C31.2,32 32,31.2 32,30 L32,20 C32,18.8 31.2,18 30,18 L30,18 L30,18 Z"
             id="path18"
             style="fill:#000000" />
          <path
             d="M11,28 L5,28 C4.4,28 4,27.6 4,27 L4,23 C4,22.4 4.4,22 5,22 L11,22 C11.6,22 12,22.4 12,23 L12,27 C12,27.6 11.6,28 11,28 L11,28 Z"
             id="path20"
             style="fill:#000000" />
          <path
             d="M27,24 L15,24 C14.4,24 14,23.6 14,23 L14,23 C14,22.4 14.4,22 15,22 L27,22 C27.6,22 28,22.4 28,23 L28,23 C28,23.6 27.6,24 27,24 L27,24 Z"
             id="path22"
             style="fill:#000000" />
          <path
             d="M27,28 L15,28 C14.4,28 14,27.6 14,27 L14,27 C14,26.4 14.4,26 15,26 L27,26 C27.6,26 28,26.4 28,27 L28,27 C28,27.6 27.6,28 27,28 L27,28 Z"
             id="path24"
             style="fill:#000000" />
        </g>
      </g>
    </g>
  </g>
</svg>
