<?xml version="1.0" encoding="UTF-8" standalone="no"?>
<svg
   xmlns:dc="http://purl.org/dc/elements/1.1/"
   xmlns:cc="http://creativecommons.org/ns#"
   xmlns:rdf="http://www.w3.org/1999/02/22-rdf-syntax-ns#"
   xmlns:svg="http://www.w3.org/2000/svg"
   xmlns="http://www.w3.org/2000/svg"
   xmlns:sodipodi="http://sodipodi.sourceforge.net/DTD/sodipodi-0.dtd"
   xmlns:inkscape="http://www.inkscape.org/namespaces/inkscape"
   width="32px"
   height="22px"
   viewBox="0 0 32 22"
   version="1.1"
   id="svg2"
   inkscape:version="0.91 r13725"
   sodipodi:docname="code.svg">
  <metadata
     id="metadata18">
    <rdf:RDF>
      <cc:Work
         rdf:about="">
        <dc:format>image/svg+xml</dc:format>
        <dc:type
           rdf:resource="http://purl.org/dc/dcmitype/StillImage" />
      </cc:Work>
    </rdf:RDF>
  </metadata>
  <sodipodi:namedview
     pagecolor="#ffffff"
     bordercolor="#666666"
     borderopacity="1"
     objecttolerance="10"
     gridtolerance="10"
     guidetolerance="10"
     inkscape:pageopacity="0"
     inkscape:pageshadow="2"
     inkscape:window-width="694"
     inkscape:window-height="480"
     id="namedview16"
     showgrid="false"
     inkscape:zoom="10.4375"
     inkscape:cx="16.431138"
     inkscape:cy="11"
     inkscape:window-x="75"
     inkscape:window-y="34"
     inkscape:window-maximized="0"
     inkscape:current-layer="svg2" />
  <defs
     id="defs4" />
  <g
     id="Page-1"
     stroke="none"
     stroke-width="1"
     fill="none"
     fill-rule="evenodd"
     style="fill:#000000">
    <g
       id="Group"
       transform="translate(-1.000000, -6.000000)"
       fill="#4FF3AD"
       style="fill:#000000">
      <g
         id="code"
         transform="translate(1.000000, 5.000000)"
         style="fill:#000000">
        <g
           id="g9"
           style="fill:#000000">
          <path
             d="M24,19 C23.718,19 23.44,18.882 23.24,18.65 C22.88,18.232 22.93,17.6 23.35,17.24 L29.462,12 L23.348,6.758 C22.928,6.398 22.88,5.768 23.238,5.348 C23.602,4.928 24.232,4.882 24.648,5.24 L31.648,11.24 C31.874,11.43 32,11.708 32,12 C32,12.292 31.874,12.57 31.65,12.758 L24.65,18.758 C24.462,18.92 24.23,19 24,19 L24,19 Z"
             id="Shape"
             style="fill:#000000" />
          <path
             d="M8,19 C7.77,19 7.538,18.92 7.35,18.758 L0.35,12.758 C0.126,12.57 0,12.292 0,12 C0,11.708 0.126,11.43 0.35,11.242 L7.35,5.242 C7.766,4.882 8.398,4.93 8.76,5.35 C9.12,5.768 9.07,6.4 8.65,6.758 L2.538,12 L8.652,17.242 C9.072,17.602 9.12,18.232 8.762,18.652 C8.56,18.882 8.282,19 8,19 L8,19 Z"
             id="path12"
             style="fill:#000000" />
          <path
             d="M12,23 C11.876,23 11.75,22.978 11.628,22.928 C11.114,22.722 10.866,22.14 11.072,21.628 L19.072,1.628 C19.278,1.116 19.86,0.866 20.37,1.07 C20.884,1.276 21.132,1.858 20.926,2.37 L12.926,22.37 C12.772,22.762 12.396,23 12,23 L12,23 Z"
             id="path14"
             style="fill:#000000" />
        </g>
      </g>
    </g>
  </g>
</svg>
