<?xml version="1.0" encoding="UTF-8" standalone="no"?>
<svg
   xmlns:dc="http://purl.org/dc/elements/1.1/"
   xmlns:cc="http://creativecommons.org/ns#"
   xmlns:rdf="http://www.w3.org/1999/02/22-rdf-syntax-ns#"
   xmlns:svg="http://www.w3.org/2000/svg"
   xmlns="http://www.w3.org/2000/svg"
   xmlns:sodipodi="http://sodipodi.sourceforge.net/DTD/sodipodi-0.dtd"
   xmlns:inkscape="http://www.inkscape.org/namespaces/inkscape"
   width="33px"
   height="32px"
   viewBox="0 0 33 32"
   version="1.1"
   id="svg2"
   inkscape:version="0.91 r13725"
   sodipodi:docname="comments.svg">
  <metadata
     id="metadata22">
    <rdf:RDF>
      <cc:Work
         rdf:about="">
        <dc:format>image/svg+xml</dc:format>
        <dc:type
           rdf:resource="http://purl.org/dc/dcmitype/StillImage" />
      </cc:Work>
    </rdf:RDF>
  </metadata>
  <sodipodi:namedview
     pagecolor="#ffffff"
     bordercolor="#666666"
     borderopacity="1"
     objecttolerance="10"
     gridtolerance="10"
     guidetolerance="10"
     inkscape:pageopacity="0"
     inkscape:pageshadow="2"
     inkscape:window-width="694"
     inkscape:window-height="480"
     id="namedview20"
     showgrid="false"
     inkscape:zoom="7.375"
     inkscape:cx="-1.1949153"
     inkscape:cy="16"
     inkscape:window-x="75"
     inkscape:window-y="34"
     inkscape:window-maximized="0"
     inkscape:current-layer="svg2" />
  <defs
     id="defs4" />
  <g
     id="Page-1"
     stroke="none"
     stroke-width="1"
     fill="none"
     fill-rule="evenodd"
     style="fill:#000000">
    <g
       id="Group"
       transform="translate(0.000000, -1.000000)"
       fill="#4FF3AD"
       style="fill:#000000">
      <g
         id="comments_module"
         transform="translate(0.000000, 1.000000)"
         style="fill:#000000">
        <g
           id="g9"
           style="fill:#000000">
          <path
             d="M29.6,4.8 C24.6,-0.8 15.6,-1.6 9.6,3.2 C3.6,8 2.8,16.6 7.8,22.2 C12,27 19,28.4 24.8,25.6 L30.6,27 L30,21.2 C34.2,16.4 33.8,9.6 29.6,4.8 L29.6,4.8 Z M24.6,23.6 L24.2,23.8 C19.2,26.2 12.8,25 9.2,21 C5,16 5.8,8.8 10.8,4.6 C16,0.4 23.6,1.2 28,6 C31.6,10.2 31.8,16.2 28.4,20.4 L28.2,20.6 L28.6,24.4 L24.6,23.6 L24.6,23.6 Z"
             id="Shape"
             style="fill:#000000" />
          <path
             d="M19.2,28 C16.2,30.4 11.8,31 8.2,29.2 L8,29 L4.6,30 L4.8,27 L4.6,26.8 C2.2,23.8 2,20 3.6,16.8 L3.6,13.8 C0.2,17.6 -2.79776202e-14,23.2 3.2,27.2 L2.8,32 L7.6,30.8 C12.4,33 18.2,31.8 21.6,28 L22,27.6 C21,27.8 20,28 19.2,28 L19.2,28 Z"
             id="path12"
             style="fill:#000000" />
          <path
             d="M19,13 C19,13.552 18.552,14 18,14 C17.448,14 17,13.552 17,13 C17,12.448 17.448,12 18,12 C18.552,12 19,12.448 19,13 L19,13 Z"
             id="path14"
             style="fill:#000000" />
          <path
             d="M23,13 C23,13.552 22.552,14 22,14 C21.448,14 21,13.552 21,13 C21,12.448 21.448,12 22,12 C22.552,12 23,12.448 23,13 L23,13 Z"
             id="path16"
             style="fill:#000000" />
          <path
             d="M15,13 C15,13.552 14.552,14 14,14 C13.448,14 13,13.552 13,13 C13,12.448 13.448,12 14,12 C14.552,12 15,12.448 15,13 L15,13 Z"
             id="path18"
             style="fill:#000000" />
        </g>
      </g>
    </g>
  </g>
</svg>
