<?xml version="1.0" encoding="UTF-8" standalone="no"?>
<svg
   xmlns:dc="http://purl.org/dc/elements/1.1/"
   xmlns:cc="http://creativecommons.org/ns#"
   xmlns:rdf="http://www.w3.org/1999/02/22-rdf-syntax-ns#"
   xmlns:svg="http://www.w3.org/2000/svg"
   xmlns="http://www.w3.org/2000/svg"
   xmlns:sodipodi="http://sodipodi.sourceforge.net/DTD/sodipodi-0.dtd"
   xmlns:inkscape="http://www.inkscape.org/namespaces/inkscape"
   width="33px"
   height="32px"
   viewBox="0 0 33 32"
   version="1.1"
   id="svg2"
   inkscape:version="0.91 r13725"
   sodipodi:docname="countdown.svg">
  <metadata
     id="metadata16">
    <rdf:RDF>
      <cc:Work
         rdf:about="">
        <dc:format>image/svg+xml</dc:format>
        <dc:type
           rdf:resource="http://purl.org/dc/dcmitype/StillImage" />
      </cc:Work>
    </rdf:RDF>
  </metadata>
  <sodipodi:namedview
     pagecolor="#ffffff"
     bordercolor="#666666"
     borderopacity="1"
     objecttolerance="10"
     gridtolerance="10"
     guidetolerance="10"
     inkscape:pageopacity="0"
     inkscape:pageshadow="2"
     inkscape:window-width="685"
     inkscape:window-height="480"
     id="namedview14"
     showgrid="false"
     inkscape:zoom="7.375"
     inkscape:cx="16.5"
     inkscape:cy="16"
     inkscape:window-x="75"
     inkscape:window-y="34"
     inkscape:window-maximized="0"
     inkscape:current-layer="svg2" />
  <defs
     id="defs4" />
  <g
     id="Page-1"
     stroke="none"
     stroke-width="1"
     fill="none"
     fill-rule="evenodd"
     style="fill:#000000">
    <g
       id="Group"
       transform="translate(0.000000, -1.000000)"
       fill="#4FF3AD"
       style="fill:#000000">
      <g
         id="countdown"
         transform="translate(0.000000, 1.000000)"
         style="fill:#000000">
        <g
           id="g9"
           style="fill:#000000">
          <path
             d="M17,0 C11.074,0 5.78,3.21 2.99,8.3 L2.99,5 C2.99,4.448 2.542,4 1.99,4 C1.438,4 0.99,4.448 0.99,5 L0.99,11 C0.99,11.552 1.438,12 1.99,12 L1.994,12 L2,12 L8,12 C8.552,12 9,11.552 9,11 C9,10.448 8.552,10 8,10 L4.382,10 C6.698,5.124 11.536,2 17,2 C24.724,2 31.01,8.282 31.01,16 C31.01,23.718 24.724,30 17,30 C10.402,30 4.634,25.324 3.288,18.88 C3.174,18.34 2.632,17.982 2.104,18.106 C1.562,18.22 1.216,18.75 1.33,19.292 C2.872,26.654 9.46,32 17,32 C25.828,32 33.01,24.822 33.01,16 C33.01,7.178 25.828,0 17,0 L17,0 Z"
             id="Shape"
             style="fill:#000000" />
          <path
             d="M16,6 C15.448,6 15,6.448 15,7 L15,17.008 C15,17.56 15.448,18.008 16,18.008 C16.014,18.008 16.026,18 16.04,18 L24,18 C24.552,18 25,17.552 25,17 C25,16.448 24.552,16 24,16 L17,16 L17,7 C17,6.448 16.552,6 16,6 L16,6 Z"
             id="path12"
             style="fill:#000000" />
        </g>
      </g>
    </g>
  </g>
</svg>
