<?xml version="1.0" encoding="UTF-8" standalone="no"?>
<svg
   xmlns:dc="http://purl.org/dc/elements/1.1/"
   xmlns:cc="http://creativecommons.org/ns#"
   xmlns:rdf="http://www.w3.org/1999/02/22-rdf-syntax-ns#"
   xmlns:svg="http://www.w3.org/2000/svg"
   xmlns="http://www.w3.org/2000/svg"
   xmlns:sodipodi="http://sodipodi.sourceforge.net/DTD/sodipodi-0.dtd"
   xmlns:inkscape="http://www.inkscape.org/namespaces/inkscape"
   width="30px"
   height="32px"
   viewBox="0 0 30 32"
   version="1.1"
   id="svg2"
   inkscape:version="0.91 r13725"
   sodipodi:docname="divider.svg">
  <metadata
     id="metadata12">
    <rdf:RDF>
      <cc:Work
         rdf:about="">
        <dc:format>image/svg+xml</dc:format>
        <dc:type
           rdf:resource="http://purl.org/dc/dcmitype/StillImage" />
      </cc:Work>
    </rdf:RDF>
  </metadata>
  <sodipodi:namedview
     pagecolor="#ffffff"
     bordercolor="#666666"
     borderopacity="1"
     objecttolerance="10"
     gridtolerance="10"
     guidetolerance="10"
     inkscape:pageopacity="0"
     inkscape:pageshadow="2"
     inkscape:window-width="694"
     inkscape:window-height="480"
     id="namedview10"
     showgrid="false"
     inkscape:zoom="7.375"
     inkscape:cx="15.610169"
     inkscape:cy="16"
     inkscape:window-x="75"
     inkscape:window-y="34"
     inkscape:window-maximized="0"
     inkscape:current-layer="svg2" />
  <defs
     id="defs4" />
  <g
     id="Page-1"
     stroke="none"
     stroke-width="1"
     fill="none"
     fill-rule="evenodd"
     style="fill:#000000">
    <g
       id="Group"
       transform="translate(-3.000000, -1.000000)"
       fill="#4FF3AD"
       style="fill:#000000">
      <g
         id="divider"
         transform="translate(3.000000, 1.000000)"
         style="fill:#000000">
        <path
           d="M28,12 L16,12 L16,3.414 L18.292,5.706 C18.682,6.096 19.316,6.096 19.706,5.706 C20.096,5.316 20.096,4.682 19.706,4.292 L15.706,0.292 C15.614,0.2 15.504,0.128 15.382,0.078 C15.138,-0.024 14.862,-0.024 14.618,0.078 C14.498,0.126 14.392,0.198 14.3,0.288 C14.298,0.29 14.296,0.29 14.292,0.292 L10.292,4.292 C9.902,4.682 9.902,5.316 10.292,5.706 C10.682,6.096 11.316,6.096 11.706,5.706 L14,3.414 L14,12 L2,12 C0.896,12 0,12.896 0,14 L0,16 C0,17.104 0.896,18 2,18 L14,18 L14,28.586 L11.708,26.294 C11.318,25.904 10.684,25.904 10.294,26.294 C9.904,26.684 9.904,27.318 10.294,27.708 L14.294,31.708 C14.296,31.71 14.3,31.71 14.302,31.714 C14.392,31.802 14.5,31.876 14.618,31.924 C14.862,32.026 15.138,32.026 15.382,31.924 C15.504,31.874 15.614,31.8 15.706,31.708 L19.706,27.708 C20.096,27.318 20.096,26.684 19.706,26.294 C19.316,25.904 18.682,25.904 18.292,26.294 L16,28.586 L16,18 L28,18 C29.104,18 30,17.104 30,16 L30,14 C30,12.896 29.104,12 28,12 L28,12 Z M28,16 L2,16 L2,14 L28,14 L28,16 L28,16 Z"
           id="Shape"
           style="fill:#000000" />
      </g>
    </g>
  </g>
</svg>
