<?xml version="1.0" encoding="UTF-8" standalone="no"?>
<svg
   xmlns:dc="http://purl.org/dc/elements/1.1/"
   xmlns:cc="http://creativecommons.org/ns#"
   xmlns:rdf="http://www.w3.org/1999/02/22-rdf-syntax-ns#"
   xmlns:svg="http://www.w3.org/2000/svg"
   xmlns="http://www.w3.org/2000/svg"
   xmlns:sodipodi="http://sodipodi.sourceforge.net/DTD/sodipodi-0.dtd"
   xmlns:inkscape="http://www.inkscape.org/namespaces/inkscape"
   width="32px"
   height="32px"
   viewBox="0 0 32 32"
   version="1.1"
   id="svg2"
   inkscape:version="0.91 r13725"
   sodipodi:docname="panel.svg">
  <metadata
     id="metadata16">
    <rdf:RDF>
      <cc:Work
         rdf:about="">
        <dc:format>image/svg+xml</dc:format>
        <dc:type
           rdf:resource="http://purl.org/dc/dcmitype/StillImage" />
      </cc:Work>
    </rdf:RDF>
  </metadata>
  <sodipodi:namedview
     pagecolor="#ffffff"
     bordercolor="#666666"
     borderopacity="1"
     objecttolerance="10"
     gridtolerance="10"
     guidetolerance="10"
     inkscape:pageopacity="0"
     inkscape:pageshadow="2"
     inkscape:window-width="694"
     inkscape:window-height="480"
     id="namedview14"
     showgrid="false"
     inkscape:zoom="7.375"
     inkscape:cx="16.610169"
     inkscape:cy="16"
     inkscape:window-x="75"
     inkscape:window-y="34"
     inkscape:window-maximized="0"
     inkscape:current-layer="svg2" />
  <defs
     id="defs4" />
  <g
     style="fill:#000000;fill-rule:evenodd;stroke:none;stroke-width:1"
     transform="translate(-1,-1)"
     id="Group">
    <g
       style="fill:#000000"
       transform="translate(1,1)"
       id="header">
      <g
         style="fill:#000000"
         id="g9">
        <path
           inkscape:connector-curvature="0"
           style="fill:#000000"
           id="Shape"
           d="M 30,0 2,0 C 0.896,0 0,0.896 0,2 l 0,28 c 0,1.104 0.896,2 2,2 l 28,0 c 1.104,0 2,-0.896 2,-2 L 32,2 C 32,0.896 31.104,0 30,0 l 0,0 z m 0,30 -28,0 0,-18 28,0 0,18 0,0 z m 0,-20 -28,0 0,-8 28,0 0,8 0,0 z" />
        <path
           inkscape:connector-curvature="0"
           style="fill:#000000"
           id="path12"
           d="M 5,6 27,6 C 27.552,6 28,5.552 28,5 28,4.448 27.552,4 27,4 L 5,4 C 4.448,4 4,4.448 4,5 4,5.552 4.448,6 5,6 l 0,0 z" />
      </g>
    </g>
  </g>
</svg>
