<?xml version="1.0" encoding="UTF-8" standalone="no"?>
<svg
   xmlns:dc="http://purl.org/dc/elements/1.1/"
   xmlns:cc="http://creativecommons.org/ns#"
   xmlns:rdf="http://www.w3.org/1999/02/22-rdf-syntax-ns#"
   xmlns:svg="http://www.w3.org/2000/svg"
   xmlns="http://www.w3.org/2000/svg"
   xmlns:sodipodi="http://sodipodi.sourceforge.net/DTD/sodipodi-0.dtd"
   xmlns:inkscape="http://www.inkscape.org/namespaces/inkscape"
   width="32px"
   height="24px"
   viewBox="0 0 32 24"
   version="1.1"
   id="svg2"
   inkscape:version="0.91 r13725"
   sodipodi:docname="person.svg">
  <metadata
     id="metadata24">
    <rdf:RDF>
      <cc:Work
         rdf:about="">
        <dc:format>image/svg+xml</dc:format>
        <dc:type
           rdf:resource="http://purl.org/dc/dcmitype/StillImage" />
      </cc:Work>
    </rdf:RDF>
  </metadata>
  <sodipodi:namedview
     pagecolor="#ffffff"
     bordercolor="#666666"
     borderopacity="1"
     objecttolerance="10"
     gridtolerance="10"
     guidetolerance="10"
     inkscape:pageopacity="0"
     inkscape:pageshadow="2"
     inkscape:window-width="694"
     inkscape:window-height="480"
     id="namedview22"
     showgrid="false"
     inkscape:zoom="9.8333333"
     inkscape:cx="16.457627"
     inkscape:cy="12"
     inkscape:window-x="75"
     inkscape:window-y="34"
     inkscape:window-maximized="0"
     inkscape:current-layer="svg2" />
  <defs
     id="defs4" />
  <g
     id="Page-1"
     stroke="none"
     stroke-width="1"
     fill="none"
     fill-rule="evenodd"
     style="fill:#000000">
    <g
       id="Group"
       transform="translate(-1.000000, -5.000000)"
       fill="#4FF3AD"
       style="fill:#000000">
      <g
         id="person"
         transform="translate(1.000000, 5.000000)"
         style="fill:#000000">
        <g
           id="g9"
           style="fill:#000000">
          <path
             d="M30,0 L2,0 C0.896,0 0,0.896 0,2 L0,22 C0,23.104 0.896,24 2,24 L30,24 C31.104,24 32,23.104 32,22 L32,2 C32,0.896 31.104,0 30,0 L30,0 Z M2,2 L30,2 L30,22 L2,22 L2,2 L2,2 Z"
             id="Shape"
             style="fill:#000000" />
          <path
             d="M27.166,12 L15,12 C14.448,12 14,12.448 14,13 C14,13.552 14.448,14 15,14 L27.166,14 C27.718,14 28.166,13.552 28.166,13 C28.166,12.448 27.718,12 27.166,12 L27.166,12 Z"
             id="path12"
             style="fill:#000000" />
          <path
             d="M27.166,16 L15,16 C14.448,16 14,16.448 14,17 C14,17.552 14.448,18 15,18 L27.166,18 C27.718,18 28.166,17.552 28.166,17 C28.166,16.448 27.718,16 27.166,16 L27.166,16 Z"
             id="path14"
             style="fill:#000000" />
          <path
             d="M27.166,8 L15,8 C14.448,8 14,8.448 14,9 C14,9.552 14.448,10 15,10 L27.166,10 C27.718,10 28.166,9.552 28.166,9 C28.166,8.448 27.718,8 27.166,8 L27.166,8 Z"
             id="path16"
             style="fill:#000000" />
          <path
             d="M10.412,8.416 C10.412,9.75 9.33,10.832 7.996,10.832 C6.662,10.832 5.58,9.75 5.58,8.416 C5.58,7.082 6.662,6 7.996,6 C9.33,6 10.412,7.082 10.412,8.416 L10.412,8.416 Z"
             id="path18"
             style="fill:#000000" />
          <path
             d="M8.048,11.798 C5.864,11.798 4.096,14.17 4.096,17.098 C4.096,20.026 12,20.024 12,17.098 C12,14.172 10.23,11.798 8.048,11.798 L8.048,11.798 Z"
             id="path20"
             style="fill:#000000" />
        </g>
      </g>
    </g>
  </g>
</svg>
