<?xml version="1.0" encoding="UTF-8" standalone="no"?>
<svg
   xmlns:dc="http://purl.org/dc/elements/1.1/"
   xmlns:cc="http://creativecommons.org/ns#"
   xmlns:rdf="http://www.w3.org/1999/02/22-rdf-syntax-ns#"
   xmlns:svg="http://www.w3.org/2000/svg"
   xmlns="http://www.w3.org/2000/svg"
   xmlns:sodipodi="http://sodipodi.sourceforge.net/DTD/sodipodi-0.dtd"
   xmlns:inkscape="http://www.inkscape.org/namespaces/inkscape"
   width="32px"
   height="28px"
   viewBox="0 0 32 28"
   version="1.1"
   id="svg2"
   inkscape:version="0.91 r13725"
   sodipodi:docname="slider.svg">
  <metadata
     id="metadata24">
    <rdf:RDF>
      <cc:Work
         rdf:about="">
        <dc:format>image/svg+xml</dc:format>
        <dc:type
           rdf:resource="http://purl.org/dc/dcmitype/StillImage" />
      </cc:Work>
    </rdf:RDF>
  </metadata>
  <sodipodi:namedview
     pagecolor="#ffffff"
     bordercolor="#666666"
     borderopacity="1"
     objecttolerance="10"
     gridtolerance="10"
     guidetolerance="10"
     inkscape:pageopacity="0"
     inkscape:pageshadow="2"
     inkscape:window-width="694"
     inkscape:window-height="480"
     id="namedview22"
     showgrid="false"
     inkscape:zoom="8.4285714"
     inkscape:cx="0.51694915"
     inkscape:cy="14"
     inkscape:window-x="75"
     inkscape:window-y="34"
     inkscape:window-maximized="0"
     inkscape:current-layer="svg2" />
  <defs
     id="defs4" />
  <g
     id="Page-1"
     stroke="none"
     stroke-width="1"
     fill="none"
     fill-rule="evenodd"
     style="fill:#000000">
    <g
       id="Group"
       transform="translate(-1.000000, -3.000000)"
       fill="#4FF3AD"
       style="fill:#000000">
      <g
         id="slider"
         transform="translate(1.000000, 3.000000)"
         style="fill:#000000">
        <g
           id="g9"
           style="fill:#000000">
          <path
             d="M22.792,7.218 C22.792,8.754 21.546,10 20.01,10 C18.474,10 17.228,8.754 17.228,7.218 C17.228,5.682 18.474,4.436 20.01,4.436 C21.546,4.436 22.792,5.682 22.792,7.218 L22.792,7.218 Z"
             id="Shape"
             style="fill:#000000" />
          <path
             d="M14,10 L8,14 L8,20 L24,20 L24,12 L20,14 L14,10 Z"
             id="path12"
             style="fill:#000000" />
          <path
             d="M30,2 L28,2 C28,0.896 27.104,0 26,0 L6,0 C4.896,0 4,0.896 4,2 L2,2 C0.896,2 0,2.896 0,4 L0,20 C0,21.104 0.896,22 2,22 L4,22 C4,23.104 4.896,24 6,24 L26,24 C27.104,24 28,23.104 28,22 L30,22 C31.104,22 32,21.104 32,20 L32,4 C32,2.896 31.104,2 30,2 L30,2 Z M2,20 L2,4 L4,4 L4,20 L2,20 L2,20 Z M26,22 L6,22 L6,2 L26,2 L26,22 L26,22 Z M30,20 L28,20 L28,4 L30,4 L30,20 L30,20 Z"
             id="path14"
             style="fill:#000000" />
          <path
             d="M17,27 C17,27.552 16.552,28 16,28 C15.448,28 15,27.552 15,27 C15,26.448 15.448,26 16,26 C16.552,26 17,26.448 17,27 L17,27 Z"
             id="path16"
             style="fill:#000000" />
          <path
             d="M21,27 C21,27.552 20.552,28 20,28 C19.448,28 19,27.552 19,27 C19,26.448 19.448,26 20,26 C20.552,26 21,26.448 21,27 L21,27 Z"
             id="path18"
             style="fill:#000000" />
          <path
             d="M13,27 C13,27.552 12.552,28 12,28 C11.448,28 11,27.552 11,27 C11,26.448 11.448,26 12,26 C12.552,26 13,26.448 13,27 L13,27 Z"
             id="path20"
             style="fill:#000000" />
        </g>
      </g>
    </g>
  </g>
</svg>
