<?xml version="1.0" encoding="UTF-8" standalone="no"?>
<svg
   xmlns:dc="http://purl.org/dc/elements/1.1/"
   xmlns:cc="http://creativecommons.org/ns#"
   xmlns:rdf="http://www.w3.org/1999/02/22-rdf-syntax-ns#"
   xmlns:svg="http://www.w3.org/2000/svg"
   xmlns="http://www.w3.org/2000/svg"
   xmlns:sodipodi="http://sodipodi.sourceforge.net/DTD/sodipodi-0.dtd"
   xmlns:inkscape="http://www.inkscape.org/namespaces/inkscape"
   width="32px"
   height="26px"
   viewBox="0 0 32 26"
   version="1.1"
   id="svg2"
   inkscape:version="0.91 r13725"
   sodipodi:docname="tabs.svg">
  <metadata
     id="metadata20">
    <rdf:RDF>
      <cc:Work
         rdf:about="">
        <dc:format>image/svg+xml</dc:format>
        <dc:type
           rdf:resource="http://purl.org/dc/dcmitype/StillImage" />
      </cc:Work>
    </rdf:RDF>
  </metadata>
  <sodipodi:namedview
     pagecolor="#ffffff"
     bordercolor="#666666"
     borderopacity="1"
     objecttolerance="10"
     gridtolerance="10"
     guidetolerance="10"
     inkscape:pageopacity="0"
     inkscape:pageshadow="2"
     inkscape:window-width="694"
     inkscape:window-height="480"
     id="namedview18"
     showgrid="false"
     inkscape:zoom="9.0769231"
     inkscape:cx="16.495763"
     inkscape:cy="13"
     inkscape:window-x="75"
     inkscape:window-y="34"
     inkscape:window-maximized="0"
     inkscape:current-layer="svg2" />
  <defs
     id="defs4" />
  <g
     id="Page-1"
     stroke="none"
     stroke-width="1"
     fill="none"
     fill-rule="evenodd"
     style="fill:#000000">
    <g
       id="Group"
       transform="translate(-1.000000, -3.000000)"
       fill="#4FF3AD"
       style="fill:#000000">
      <g
         id="tabs"
         transform="translate(1.000000, 3.000000)"
         style="fill:#000000">
        <g
           id="g9"
           style="fill:#000000">
          <path
             d="M30,0 L2,0 C0.896,0 0,0.896 0,2 L0,24 C0,25.104 0.896,26 2,26 L30,26 C31.104,26 32,25.104 32,24 L32,2 C32,0.896 31.104,0 30,0 L30,0 Z M30,2 L30,4 L22,4 L22,2 L30,2 L30,2 Z M12,2 L20,2 L20,4 L12,4 L12,2 L12,2 Z M30,24 L2,24 L2,2 L10,2 L10,6 L30,6 L30,24 L30,24 Z"
             id="Shape"
             style="fill:#000000" />
          <path
             d="M5,11 C5,11.552 5.448,12 6,12 L26,12 C26.552,12 27,11.552 27,11 C27,10.448 26.552,10 26,10 L6,10 C5.448,10 5,10.448 5,11 L5,11 Z"
             id="path12"
             style="fill:#000000" />
          <path
             d="M26,14 L6,14 C5.448,14 5,14.448 5,15 C5,15.552 5.448,16 6,16 L26,16 C26.552,16 27,15.552 27,15 C27,14.448 26.552,14 26,14 L26,14 Z"
             id="path14"
             style="fill:#000000" />
          <path
             d="M26,18 L6,18 C5.448,18 5,18.448 5,19 C5,19.552 5.448,20 6,20 L26,20 C26.552,20 27,19.552 27,19 C27,18.448 26.552,18 26,18 L26,18 Z"
             id="path16"
             style="fill:#000000" />
        </g>
      </g>
    </g>
  </g>
</svg>
