<?xml version="1.0" encoding="UTF-8" standalone="no"?>
<svg
   xmlns:dc="http://purl.org/dc/elements/1.1/"
   xmlns:cc="http://creativecommons.org/ns#"
   xmlns:rdf="http://www.w3.org/1999/02/22-rdf-syntax-ns#"
   xmlns:svg="http://www.w3.org/2000/svg"
   xmlns="http://www.w3.org/2000/svg"
   xmlns:sodipodi="http://sodipodi.sourceforge.net/DTD/sodipodi-0.dtd"
   xmlns:inkscape="http://www.inkscape.org/namespaces/inkscape"
   width="28px"
   height="32px"
   viewBox="0 0 28 32"
   version="1.1"
   id="svg2"
   inkscape:version="0.91 r13725"
   sodipodi:docname="text.svg">
  <metadata
     id="metadata12">
    <rdf:RDF>
      <cc:Work
         rdf:about="">
        <dc:format>image/svg+xml</dc:format>
        <dc:type
           rdf:resource="http://purl.org/dc/dcmitype/StillImage" />
      </cc:Work>
    </rdf:RDF>
  </metadata>
  <sodipodi:namedview
     pagecolor="#ffffff"
     bordercolor="#666666"
     borderopacity="1"
     objecttolerance="10"
     gridtolerance="10"
     guidetolerance="10"
     inkscape:pageopacity="0"
     inkscape:pageshadow="2"
     inkscape:window-width="694"
     inkscape:window-height="480"
     id="namedview10"
     showgrid="false"
     inkscape:zoom="7.375"
     inkscape:cx="14.610169"
     inkscape:cy="16"
     inkscape:window-x="65"
     inkscape:window-y="24"
     inkscape:window-maximized="0"
     inkscape:current-layer="svg2" />
  <defs
     id="defs4" />
  <g
     id="Page-1"
     stroke="none"
     stroke-width="1"
     fill="none"
     fill-rule="evenodd"
     style="fill:#000000">
    <g
       id="Group"
       transform="translate(-3.000000, -1.000000)"
       fill="#4FF3AD"
       style="fill:#000000">
      <g
         id="document_alt"
         transform="translate(3.000000, 1.000000)"
         style="fill:#000000">
        <path
           d="M2,32 L26,32 C27.104,32 28,31.104 28,30 L28,2 C28,0.896 27.104,0 26,0 L2,0 C0.896,0 0,0.896 0,2 L0,30 C0,31.104 0.896,32 2,32 L2,32 Z M2,2 L26,2 L26,30 L2,30 L2,2 L2,2 Z M21,6 L13,6 C12.448,6 12,6.448 12,7 C12,7.552 12.448,8 13,8 L21,8 C21.552,8 22,7.552 22,7 C22,6.448 21.552,6 21,6 L21,6 Z M21,12 L7,12 C6.448,12 6,12.448 6,13 C6,13.552 6.448,14 7,14 L21,14 C21.552,14 22,13.552 22,13 C22,12.448 21.552,12 21,12 L21,12 Z M21,18 L7,18 C6.448,18 6,18.448 6,19 C6,19.552 6.448,20 7,20 L21,20 C21.552,20 22,19.552 22,19 C22,18.448 21.552,18 21,18 L21,18 Z M21,24 L7,24 C6.448,24 6,24.448 6,25 C6,25.552 6.448,26 7,26 L21,26 C21.552,26 22,25.552 22,25 C22,24.448 21.552,24 21,24 L21,24 Z"
           id="Shape"
           style="fill:#000000" />
      </g>
    </g>
  </g>
</svg>
