<?xml version="1.0" encoding="UTF-8" standalone="no"?>
<svg
   xmlns:dc="http://purl.org/dc/elements/1.1/"
   xmlns:cc="http://creativecommons.org/ns#"
   xmlns:rdf="http://www.w3.org/1999/02/22-rdf-syntax-ns#"
   xmlns:svg="http://www.w3.org/2000/svg"
   xmlns="http://www.w3.org/2000/svg"
   xmlns:sodipodi="http://sodipodi.sourceforge.net/DTD/sodipodi-0.dtd"
   xmlns:inkscape="http://www.inkscape.org/namespaces/inkscape"
   width="32px"
   height="32px"
   viewBox="0 0 32 32"
   version="1.1"
   id="svg2"
   inkscape:version="0.91 r13725"
   sodipodi:docname="video.svg">
  <metadata
     id="metadata16">
    <rdf:RDF>
      <cc:Work
         rdf:about="">
        <dc:format>image/svg+xml</dc:format>
        <dc:type
           rdf:resource="http://purl.org/dc/dcmitype/StillImage" />
      </cc:Work>
    </rdf:RDF>
  </metadata>
  <sodipodi:namedview
     pagecolor="#ffffff"
     bordercolor="#666666"
     borderopacity="1"
     objecttolerance="10"
     gridtolerance="10"
     guidetolerance="10"
     inkscape:pageopacity="0"
     inkscape:pageshadow="2"
     inkscape:window-width="694"
     inkscape:window-height="480"
     id="namedview14"
     showgrid="false"
     inkscape:zoom="7.375"
     inkscape:cx="16.610169"
     inkscape:cy="16"
     inkscape:window-x="75"
     inkscape:window-y="34"
     inkscape:window-maximized="0"
     inkscape:current-layer="svg2" />
  <defs
     id="defs4" />
  <g
     id="Page-1"
     stroke="none"
     stroke-width="1"
     fill="none"
     fill-rule="evenodd"
     style="fill:#000000">
    <g
       id="Group"
       transform="translate(-1.000000, -1.000000)"
       fill="#4FF3AD"
       style="fill:#000000">
      <g
         id="video"
         transform="translate(1.000000, 1.000000)"
         style="fill:#000000">
        <g
           id="g9"
           style="fill:#000000">
          <path
             d="M30,0 L2,0 C0.896,0 0,0.896 0,2 L0,30 C0,31.104 0.896,32 2,32 L30,32 C31.104,32 32,31.104 32,30 L32,2 C32,0.896 31.104,0 30,0 L30,0 Z M2,2 L6,2 L6,6 L2,6 L2,2 L2,2 Z M2,8 L6,8 L6,12 L2,12 L2,8 L2,8 Z M2,14 L6,14 L6,18 L2,18 L2,14 L2,14 Z M2,20 L6,20 L6,24 L2,24 L2,20 L2,20 Z M2,30 L2,26 L6,26 L6,30 L2,30 L2,30 Z M8,30 L8,2 L24,2 L24,30 L8,30 L8,30 Z M30,30 L26,30 L26,26 L30,26 L30,30 L30,30 Z M30,24 L26,24 L26,20 L30,20 L30,24 L30,24 Z M30,18 L26,18 L26,14 L30,14 L30,18 L30,18 Z M30,12 L26,12 L26,8 L30,8 L30,12 L30,12 Z M26,6 L26,2 L30,2 L30,6 L26,6 L26,6 Z"
             id="Shape"
             style="fill:#000000" />
          <path
             d="M13.582,10.186 C13.274,9.968 12.876,9.94 12.542,10.112 C12.208,10.282 12,10.624 12,11 L12,21 C12,21.376 12.208,21.718 12.542,21.888 C12.686,21.964 12.844,22 13,22 C13.206,22 13.408,21.938 13.582,21.814 L20.582,16.814 C20.844,16.626 21,16.324 21,16 C21,15.676 20.844,15.374 20.582,15.186 L13.582,10.186 L13.582,10.186 Z"
             id="path12"
             style="fill:#000000" />
        </g>
      </g>
    </g>
  </g>
</svg>
