<?xml version="1.0" encoding="UTF-8" standalone="no"?>
<svg
   xmlns:dc="http://purl.org/dc/elements/1.1/"
   xmlns:cc="http://creativecommons.org/ns#"
   xmlns:rdf="http://www.w3.org/1999/02/22-rdf-syntax-ns#"
   xmlns:svg="http://www.w3.org/2000/svg"
   xmlns="http://www.w3.org/2000/svg"
   xmlns:sodipodi="http://sodipodi.sourceforge.net/DTD/sodipodi-0.dtd"
   xmlns:inkscape="http://www.inkscape.org/namespaces/inkscape"
   width="32px"
   height="32px"
   viewBox="0 0 32 32"
   version="1.1"
   id="svg2"
   inkscape:version="0.91 r13725"
   sodipodi:docname="cta.svg">
  <metadata
     id="metadata12">
    <rdf:RDF>
      <cc:Work
         rdf:about="">
        <dc:format>image/svg+xml</dc:format>
        <dc:type
           rdf:resource="http://purl.org/dc/dcmitype/StillImage" />
      </cc:Work>
    </rdf:RDF>
  </metadata>
  <sodipodi:namedview
     pagecolor="#ffffff"
     bordercolor="#666666"
     borderopacity="1"
     objecttolerance="10"
     gridtolerance="10"
     guidetolerance="10"
     inkscape:pageopacity="0"
     inkscape:pageshadow="2"
     inkscape:window-width="694"
     inkscape:window-height="480"
     id="namedview10"
     showgrid="false"
     inkscape:zoom="7.375"
     inkscape:cx="16.610169"
     inkscape:cy="16"
     inkscape:window-x="65"
     inkscape:window-y="24"
     inkscape:window-maximized="0"
     inkscape:current-layer="svg2" />
  <defs
     id="defs4" />
  <g
     id="Page-1"
     stroke="none"
     stroke-width="1"
     fill="none"
     fill-rule="evenodd"
     style="fill:#000000">
    <g
       id="Group"
       transform="translate(-1.000000, -1.000000)"
       fill="#4FF3AD"
       style="fill:#000000">
      <g
         id="cta"
         transform="translate(1.000000, 1.000000)"
         style="fill:#000000">
        <path
           d="M30,0 L2,0 C0.896,0 0,0.896 0,2 L0,16 C0,17.104 0.896,18 2,18 L15.196,18 L15.196,28.518 C15.196,28.95 15.474,29.332 15.882,29.468 C15.986,29.502 16.09,29.518 16.196,29.518 C16.506,29.518 16.808,29.372 16.998,29.114 L20.262,24.716 L22.908,31.328 C23.064,31.72 23.44,31.956 23.836,31.956 C23.96,31.956 24.086,31.934 24.208,31.884 C24.722,31.678 24.97,31.096 24.764,30.584 L22.09,23.898 L27.814,25.006 C28.23,25.09 28.65,24.896 28.864,24.532 C29.078,24.168 29.04,23.706 28.768,23.382 L24.234,18 L30,18 C31.104,18 32,17.104 32,16 L32,2 C32,0.896 31.104,7.10542736e-15 30,7.10542736e-15 L30,0 Z M20.782,21.612 C20.406,21.536 20.016,21.69 19.79,21.998 L17.196,25.494 L17.196,12.742 L25.414,22.508 L20.782,21.612 L20.782,21.612 Z M30,16 L22.552,16 L16.96,9.356 C16.692,9.034 16.242,8.916 15.854,9.06 C15.458,9.204 15.196,9.58 15.196,10 L15.196,16 L2,16 L2,2 L30,2 L30,16 L30,16 Z"
           id="Shape"
           style="fill:#000000" />
      </g>
    </g>
  </g>
</svg>
